<?xml version="1.0" encoding="UTF-8" ?>
<!DOCTYPE svg PUBLIC "-//W3C//DTD SVG 1.1//EN" "http://www.w3.org/Graphics/SVG/1.1/DTD/svg11.dtd">
<svg width="514pt" height="514pt" viewBox="0 0 514 514" version="1.1" xmlns="http://www.w3.org/2000/svg">
<g id="#545e7cff">
<path fill="#545e7c" opacity="1.00" d=" M 218.89 3.88 C 249.52 -0.91 280.93 0.34 311.24 6.80 C 354.81 16.17 395.79 37.26 428.75 67.25 C 432.90 71.77 438.01 75.31 441.79 80.19 C 451.56 89.87 460.11 100.73 467.96 112.01 C 493.93 149.87 509.75 194.76 512.36 240.64 C 513.71 253.41 512.99 266.29 511.96 279.04 C 507.38 335.22 483.23 389.58 444.76 430.77 C 436.74 438.45 429.47 446.98 420.46 453.57 C 415.12 448.97 408.98 445.43 402.62 442.43 C 376.84 429.55 351.04 416.68 325.28 403.76 C 316.59 399.54 310.20 390.95 308.65 381.42 C 307.66 369.64 308.41 357.76 308.21 345.95 C 308.06 342.55 311.04 340.35 312.80 337.80 C 324.99 321.82 334.15 303.63 340.61 284.63 C 341.27 281.97 344.20 281.40 346.25 280.14 C 354.83 276.00 359.78 266.33 359.52 256.99 C 359.40 245.66 359.64 234.33 359.42 223.00 C 359.39 217.05 356.82 211.49 352.99 207.03 C 351.15 205.16 350.82 202.55 350.96 200.05 C 351.16 183.37 350.81 166.68 351.21 150.00 C 351.23 132.90 345.08 115.36 332.75 103.25 C 320.03 90.15 302.15 83.49 284.45 80.63 C 265.78 77.70 246.63 77.84 227.99 80.86 C 226.22 80.34 224.29 80.62 222.94 81.93 C 221.61 82.23 220.29 82.54 218.97 82.84 C 217.50 82.31 215.90 82.69 214.94 83.95 C 198.25 88.57 182.64 98.46 173.18 113.18 C 165.51 125.23 162.11 139.76 162.83 153.97 C 163.19 168.65 162.81 183.33 163.04 198.01 C 162.98 200.20 163.22 202.47 162.58 204.60 C 161.12 207.07 159.09 209.15 157.67 211.65 C 155.31 215.66 154.47 220.39 154.48 225.00 C 154.45 233.00 154.50 241.00 154.50 249.01 C 154.49 255.24 153.90 261.76 156.38 267.65 C 157.93 271.72 160.75 275.15 164.07 277.91 C 165.70 279.16 166.74 280.95 167.17 282.94 C 172.20 302.44 181.03 320.92 192.64 337.35 C 194.60 340.30 197.62 343.09 197.31 346.94 C 197.31 355.96 197.25 364.98 197.31 374.00 C 197.44 381.80 194.88 389.75 189.58 395.56 C 184.66 401.37 177.56 404.47 171.01 408.01 C 157.02 415.58 143.08 423.25 129.14 430.90 C 127.63 430.67 126.23 431.44 125.68 432.87 C 114.41 439.05 102.48 444.35 92.51 452.62 C 84.51 446.66 77.85 439.21 70.74 432.27 C 31.27 390.60 6.28 335.28 1.98 277.98 C -0.08 258.88 1.05 239.58 3.62 220.59 C 11.00 168.14 35.22 118.11 72.16 80.11 C 75.86 75.16 81.09 71.75 85.26 67.25 C 122.22 33.53 169.37 11.13 218.89 3.88 Z" />
</g>
<g id="#e8edeeff">
<path fill="#e8edee" opacity="1.00" d=" M 227.99 80.86 C 246.63 77.84 265.78 77.70 284.45 80.63 C 302.15 83.49 320.03 90.15 332.75 103.25 C 345.08 115.36 351.23 132.90 351.21 150.00 C 350.81 166.68 351.16 183.37 350.96 200.05 C 350.82 202.55 351.15 205.16 352.99 207.03 C 356.82 211.49 359.39 217.05 359.42 223.00 C 359.64 234.33 359.40 245.66 359.52 256.99 C 359.78 266.33 354.83 276.00 346.25 280.14 C 344.20 281.40 341.27 281.97 340.61 284.63 C 334.15 303.63 324.99 321.82 312.80 337.80 C 311.04 340.35 308.06 342.55 308.21 345.95 C 308.41 357.76 307.66 369.64 308.65 381.42 C 310.20 390.95 316.59 399.54 325.28 403.76 C 351.04 416.68 376.84 429.55 402.62 442.43 C 408.98 445.43 415.12 448.97 420.46 453.57 C 408.10 464.56 393.81 473.03 379.97 481.97 C 374.02 484.60 368.12 487.36 362.30 490.28 C 354.04 493.33 346.36 498.07 337.63 499.66 C 330.27 502.04 322.88 504.35 315.42 506.40 C 301.07 508.85 286.73 512.19 272.12 512.02 C 270.71 512.00 269.68 512.67 269.01 514.00 L 244.82 514.00 C 244.51 513.56 243.90 512.69 243.60 512.25 C 239.01 511.56 234.27 512.56 229.74 511.29 C 219.88 510.32 210.11 508.62 200.42 506.60 C 193.60 505.53 187.29 502.52 180.44 501.58 C 175.97 499.39 171.26 497.76 166.44 496.55 C 158.58 493.13 150.59 490.00 142.98 486.03 C 136.64 483.84 131.39 479.52 125.41 476.58 C 114.16 469.00 102.22 462.18 92.51 452.62 C 102.48 444.35 114.41 439.05 125.68 432.87 C 127.21 433.21 128.68 432.40 129.14 430.90 C 143.08 423.25 157.02 415.58 171.01 408.01 C 177.56 404.47 184.66 401.37 189.58 395.56 C 194.88 389.75 197.44 381.80 197.31 374.00 C 197.25 364.98 197.31 355.96 197.31 346.94 C 197.62 343.09 194.60 340.30 192.64 337.35 C 181.03 320.92 172.20 302.44 167.17 282.94 C 166.74 280.95 165.70 279.16 164.07 277.91 C 160.75 275.15 157.93 271.72 156.38 267.65 C 153.90 261.76 154.49 255.24 154.50 249.01 C 154.50 241.00 154.45 233.00 154.48 225.00 C 154.47 220.39 155.31 215.66 157.67 211.65 C 159.09 209.15 161.12 207.07 162.58 204.60 C 163.22 202.47 162.98 200.20 163.04 198.01 C 162.81 183.33 163.19 168.65 162.83 153.97 C 162.11 139.76 165.51 125.23 173.18 113.18 C 182.64 98.46 198.25 88.57 214.94 83.95 C 216.40 84.57 218.05 84.16 218.97 82.84 C 220.29 82.54 221.61 82.23 222.94 81.93 C 224.70 82.56 226.67 82.26 227.99 80.86 Z" />
</g>
<g id="#9ea5b2f2">
<path fill="#9ea5b2" opacity="0.95" d=" M 222.94 81.93 C 224.29 80.62 226.22 80.34 227.99 80.86 C 226.67 82.26 224.70 82.56 222.94 81.93 Z" />
<path fill="#9ea5b2" opacity="0.95" d=" M 214.94 83.95 C 215.90 82.69 217.50 82.31 218.97 82.84 C 218.05 84.16 216.40 84.57 214.94 83.95 Z" />
<path fill="#9ea5b2" opacity="0.95" d=" M 125.68 432.87 C 126.23 431.44 127.63 430.67 129.14 430.90 C 128.68 432.40 127.21 433.21 125.68 432.87 Z" />
</g>
</svg>
