<?xml version="1.0" encoding="UTF-8" ?>
<!DOCTYPE svg PUBLIC "-//W3C//DTD SVG 1.1//EN" "http://www.w3.org/Graphics/SVG/1.1/DTD/svg11.dtd">
<svg width="960pt" height="540pt" viewBox="0 0 960 540" version="1.1" xmlns="http://www.w3.org/2000/svg">
<g id="#ddddddff">
<path fill="#dddddd" opacity="1.00" d=" M 96.54 199.79 C 117.63 178.34 139.00 157.15 160.27 135.86 C 174.20 149.02 183.25 167.11 185.66 186.10 C 187.88 204.13 186.01 223.09 177.77 239.48 C 173.47 248.33 167.31 256.10 160.53 263.16 C 139.19 242.05 117.88 220.90 96.54 199.79 Z" />
<path fill="#dddddd" opacity="1.00" d=" M 207.98 160.85 C 212.38 151.53 218.57 143.10 225.93 135.90 C 247.31 157.05 268.39 178.50 289.86 199.56 C 268.59 220.88 247.49 242.36 226.25 263.69 C 214.15 251.59 205.16 236.23 201.76 219.38 C 197.82 199.87 199.50 178.97 207.98 160.85 Z" />
<path fill="#dddddd" opacity="1.00" d=" M 233.38 270.77 C 254.49 249.27 275.93 228.12 297.01 206.60 C 311.21 220.41 320.62 239.11 322.73 258.85 C 324.35 270.85 323.39 283.13 320.45 294.85 C 316.59 309.85 308.36 323.61 297.25 334.37 C 276.08 313.05 254.67 291.97 233.38 270.77 Z" />
<path fill="#dddddd" opacity="1.00" d=" M 87.49 208.85 C 108.69 230.18 129.99 251.40 151.40 272.51 C 130.20 293.94 108.80 315.16 87.70 336.68 C 75.91 325.03 67.19 310.15 63.62 293.91 C 58.73 272.40 61.19 248.98 71.76 229.50 C 75.93 221.88 81.30 214.93 87.49 208.85 Z" />
<path fill="#dddddd" opacity="1.00" d=" M 766.36 217.32 C 770.60 213.63 775.79 209.11 781.86 210.55 C 787.98 212.18 792.04 217.39 796.41 221.60 C 803.99 229.18 811.58 236.75 819.15 244.35 C 819.11 237.91 819.15 231.46 819.12 225.02 C 836.42 225.02 853.71 225.03 871.00 225.02 C 882.38 224.95 894.21 226.09 904.40 231.56 C 914.26 236.58 921.72 246.04 924.08 256.88 C 926.33 267.30 926.07 278.47 922.35 288.54 C 917.99 300.31 907.65 309.75 895.44 312.77 C 887.46 314.82 879.17 315.60 870.95 315.48 C 853.67 315.48 836.40 315.47 819.13 315.48 C 819.14 307.46 819.11 299.43 819.15 291.40 C 810.35 300.21 801.56 309.03 792.73 317.81 C 788.80 321.42 784.46 325.38 778.93 325.99 C 772.45 325.97 767.71 320.85 763.50 316.56 C 756.13 309.17 748.72 301.83 741.38 294.41 C 741.50 299.33 741.20 304.81 737.62 308.59 C 732.64 313.98 724.84 315.14 717.88 315.49 C 692.71 315.52 667.55 315.49 642.38 315.50 C 642.37 302.59 642.38 289.67 642.37 276.75 C 620.54 276.75 598.71 276.75 576.88 276.75 C 576.87 289.68 576.87 302.60 576.88 315.53 C 568.95 315.48 561.03 315.50 553.11 315.52 C 549.45 308.94 545.87 302.33 542.24 295.75 C 523.24 295.73 504.25 295.79 485.25 295.72 C 481.66 302.27 478.21 308.90 474.72 315.50 C 464.69 315.51 454.65 315.49 444.62 315.51 C 432.53 304.12 420.37 292.81 408.30 281.41 C 401.70 281.34 395.10 281.39 388.50 281.38 C 388.50 292.75 388.50 304.13 388.50 315.50 C 381.58 315.50 374.66 315.51 367.75 315.49 C 367.75 285.37 367.75 255.25 367.75 225.13 C 393.87 225.13 420.00 225.10 446.12 225.14 C 452.22 225.24 459.20 226.75 462.76 232.20 C 466.91 238.68 465.09 246.74 465.50 253.98 C 465.19 261.12 466.80 269.18 462.29 275.36 C 459.02 279.85 453.16 281.03 447.94 281.11 C 443.08 281.42 438.22 281.39 433.36 281.38 C 442.33 288.76 451.34 296.11 460.32 303.49 C 475.04 277.36 489.89 251.30 504.59 225.16 C 511.41 225.08 518.23 225.14 525.05 225.13 C 535.28 243.02 545.65 260.83 555.76 278.80 C 555.74 260.91 555.75 243.02 555.75 225.13 C 562.79 225.12 569.83 225.12 576.87 225.13 C 576.88 236.79 576.87 248.46 576.88 260.12 C 598.71 260.13 620.54 260.13 642.37 260.12 C 642.39 248.43 642.34 236.74 642.40 225.06 C 667.93 225.05 693.46 225.19 718.99 225.12 C 724.91 225.07 731.50 225.71 736.03 229.95 C 739.58 233.24 740.64 238.29 740.67 242.95 C 749.20 234.37 757.68 225.75 766.36 217.32 M 739.50 268.31 C 752.60 281.42 765.71 294.52 778.81 307.62 C 792.25 294.20 805.66 280.75 819.11 267.34 C 806.04 254.19 792.91 241.11 779.81 228.00 C 766.37 241.44 752.93 254.87 739.50 268.31 M 663.81 240.00 C 663.81 247.13 663.81 254.25 663.81 261.37 C 679.89 261.37 695.97 261.39 712.04 261.37 C 715.32 261.32 719.65 260.55 720.78 256.94 C 721.38 252.97 721.20 248.88 720.92 244.89 C 720.21 241.38 716.24 240.08 713.09 240.03 C 696.66 239.96 680.24 240.02 663.81 240.00 M 388.51 240.88 C 388.50 249.21 388.50 257.54 388.50 265.87 C 404.70 265.86 420.91 265.89 437.11 265.86 C 440.26 265.97 444.31 264.78 444.82 261.15 C 445.15 256.09 445.05 250.98 444.88 245.92 C 444.60 242.49 440.99 240.85 437.93 240.93 C 421.45 240.80 404.98 240.91 388.51 240.88 M 836.75 241.49 C 836.78 260.50 836.75 279.50 836.75 298.51 C 848.81 298.37 860.88 298.81 872.93 298.09 C 880.66 297.34 888.96 296.21 895.17 291.11 C 900.68 286.48 903.14 279.17 903.46 272.16 C 903.82 264.57 902.76 256.31 897.77 250.25 C 892.73 244.15 884.54 241.84 876.91 241.52 C 863.53 241.47 850.14 241.53 836.75 241.49 M 494.17 279.37 C 507.26 279.38 520.35 279.38 533.44 279.37 C 527.01 267.21 520.58 255.06 514.17 242.89 C 507.47 255.03 500.83 267.21 494.17 279.37 M 663.82 276.38 C 663.81 283.96 663.81 291.54 663.81 299.12 C 680.22 299.12 696.63 299.14 713.04 299.11 C 715.60 298.93 718.81 298.78 720.44 296.47 C 722.06 293.60 721.50 290.15 721.64 287.00 C 721.51 284.07 721.99 280.57 719.76 278.27 C 717.62 276.52 714.65 276.47 712.02 276.37 C 695.95 276.38 679.88 276.37 663.82 276.38 Z" />
<path fill="#dddddd" opacity="1.00" d=" M 158.42 279.55 C 170.92 292.07 180.00 308.14 183.21 325.61 C 186.73 344.39 185.04 364.39 177.01 381.84 C 172.58 391.39 166.31 400.05 158.75 407.37 C 137.52 386.10 116.30 364.82 94.88 343.74 C 116.06 322.34 137.27 300.98 158.42 279.55 Z" />
<path fill="#dddddd" opacity="1.00" d=" M 205.31 307.15 C 209.63 296.97 216.41 288.06 224.00 280.10 C 245.35 301.27 266.57 322.57 288.04 343.62 C 266.87 365.05 245.56 386.35 224.24 407.63 C 210.02 394.12 200.86 375.53 198.68 356.05 C 197.00 339.56 198.51 322.41 205.31 307.15 Z" />
</g>
</svg>
