<?xml version="1.0" encoding="iso-8859-1"?>
<svg xmlns="http://www.w3.org/2000/svg" xmlns:xlink="http://www.w3.org/1999/xlink" version="1.1" viewBox="0 0 17.157 17.157" enable-background="new 0 0 17.157 17.157" width="512px" height="512px">
  <g fill-rule="evenodd">
    <path d="m16.407,1.938h-15.657c-0.414,0-0.75,0.336-0.75,0.75 0,0.414 0.336,0.75 0.75,0.75h15.657c0.414,0 0.75-0.336 0.75-0.75 0-0.414-0.336-0.75-0.75-0.75z" fill="#444444"/>
    <path d="M16.06,6.115H0.75C0.336,6.115,0,6.45,0,6.865c0,0.414,0.336,0.75,0.75,0.75   h15.31c0.414,0,0.75-0.336,0.75-0.75C16.81,6.45,16.474,6.115,16.06,6.115z" fill="#444444"/>
    <path d="M16.06,9.78H0.75C0.336,9.78,0,10.116,0,10.53c0,0.414,0.336,0.75,0.75,0.75   h15.31c0.414,0,0.75-0.336,0.75-0.75C16.81,10.116,16.474,9.78,16.06,9.78z" fill="#444444"/>
    <path d="m16.06,13.719h-15.31c-0.414,0-0.75,0.336-0.75,0.75 0,0.414 0.336,0.75 0.75,0.75h15.31c0.414,0 0.75-0.336 0.75-0.75-3.55271e-15-0.414-0.336-0.75-0.75-0.75z" fill="#444444"/>
  </g>
</svg>
