<?xml version="1.0" encoding="iso-8859-1"?>
<svg xmlns="http://www.w3.org/2000/svg" xmlns:xlink="http://www.w3.org/1999/xlink" version="1.1" viewBox="0 0 18.503 18.503" enable-background="new 0 0 18.503 18.503" width="512px" height="512px">
  <path fill-rule="evenodd" d="m16.493,2.012c-1.297-1.298-3.022-2.012-4.856-2.012-1.835,0-3.56,0.714-4.855,2.012-1.298,1.297-2.013,3.022-2.013,4.856 0,1.581 0.534,3.08 1.512,4.294l-6.058,6.06c-0.293,0.293-0.293,0.768 0,1.06 0.146,0.146 0.338,0.22 0.53,0.22s0.384-0.073 0.53-0.22l6.057-6.06c1.214,0.978 2.713,1.512 4.295,1.512 1.835,0 3.56-0.714 4.857-2.011 2.676-2.677 2.676-7.033 0.001-9.711zm-1.06,8.652c-1.015,1.014-2.362,1.572-3.797,1.572-1.434,0-2.781-0.558-3.794-1.572-1.015-1.015-1.573-2.362-1.573-3.796s0.559-2.782 1.573-3.796c1.014-1.013 2.361-1.572 3.795-1.572s2.782,0.559 3.796,1.572c2.091,2.093 2.091,5.499 0,7.592z" fill="#444444"/>
</svg>
